<svg width="273" height="286" viewBox="0 0 273 286" fill="none" xmlns="http://www.w3.org/2000/svg">
<g clip-path="url(#clip0_2591_2126)">
<path d="M54.6707 24.3426V147.946L137.502 231.586L220.333 147.946V24.3426C220.333 24.3426 143.418 -30.426 54.6611 24.3426" fill="black"/>
<path d="M54.6709 147.946L94.605 107.983L136.025 147.946L220.342 66.5321V147.946L137.511 231.586L54.6805 147.946H54.6709Z" fill="#CC1517"/>
<path d="M176.362 109L136.035 147.946L94.6143 107.983L134.98 67.5876L176.362 109Z" fill="white"/>
<path d="M15.552 265.783C14.8137 265.179 14.0754 264.737 13.3275 264.449C12.5893 264.162 11.8702 264.018 11.1798 264.018C10.2977 264.018 9.57862 264.229 9.0321 264.641C8.476 265.054 8.19794 265.601 8.19794 266.273C8.19794 266.733 8.33218 267.117 8.61023 267.414C8.88828 267.712 9.25263 267.98 9.70326 268.192C10.1539 268.412 10.6621 268.604 11.2278 268.767C11.7935 268.93 12.3591 269.103 12.9153 269.285C15.1397 270.024 16.7601 271.013 17.7956 272.26C18.8215 273.498 19.3392 275.119 19.3392 277.105C19.3392 278.449 19.1091 279.667 18.6585 280.752C18.2078 281.836 17.5463 282.776 16.6833 283.544C15.8108 284.321 14.7466 284.925 13.4905 285.348C12.2249 285.779 10.7963 285.99 9.20469 285.99C5.89682 285.99 2.82865 285.002 0.00976562 283.035L2.92453 277.547C3.94086 278.449 4.9476 279.12 5.94476 279.562C6.94191 280.003 7.91989 280.224 8.89787 280.224C10.0101 280.224 10.8347 279.965 11.3812 279.456C11.9277 278.948 12.1962 278.372 12.1962 277.719C12.1962 277.326 12.129 276.981 11.9852 276.693C11.851 276.405 11.6113 276.136 11.2949 275.896C10.9689 275.657 10.547 275.426 10.0293 275.215C9.5115 275.004 8.87869 274.774 8.14042 274.524C7.25832 274.246 6.39539 273.939 5.55165 273.603C4.7079 273.267 3.95045 272.826 3.29846 272.269C2.64647 271.713 2.10954 271.013 1.69726 270.168C1.29456 269.324 1.09321 268.249 1.09321 266.954C1.09321 265.658 1.30415 264.478 1.73561 263.432C2.16707 262.377 2.76153 261.475 3.53816 260.727C4.31479 259.978 5.26401 259.393 6.38581 258.971C7.50761 258.558 8.76364 258.347 10.1539 258.347C11.4483 258.347 12.8002 258.529 14.2192 258.884C15.6287 259.239 16.9806 259.767 18.2846 260.468L15.5807 265.783H15.552Z" fill="#CC1517"/>
<path d="M43.1274 267.827C41.555 265.908 39.6086 264.948 37.2979 264.948C36.2816 264.948 35.3323 265.131 34.4694 265.505C33.5969 265.879 32.8586 266.378 32.2258 267.011C31.6026 267.645 31.1136 268.403 30.7493 269.285C30.3945 270.168 30.2123 271.118 30.2123 272.135C30.2123 273.152 30.3945 274.141 30.7493 275.014C31.104 275.896 31.6026 276.654 32.245 277.307C32.8778 277.959 33.6257 278.468 34.4886 278.833C35.3419 279.207 36.272 279.389 37.2691 279.389C39.4456 279.389 41.4016 278.458 43.137 276.606V284.666L42.4467 284.906C41.4016 285.28 40.4332 285.549 39.5319 285.722C38.6306 285.894 37.7389 285.981 36.8568 285.981C35.0543 285.981 33.3188 285.635 31.6697 284.954C30.011 284.273 28.5536 283.313 27.2976 282.076C26.0319 280.838 25.0252 279.37 24.2582 277.662C23.4911 275.964 23.1172 274.102 23.1172 272.087C23.1172 270.072 23.4911 268.23 24.2486 266.551C24.9964 264.872 26.0032 263.423 27.2688 262.204C28.5344 260.986 29.9918 260.036 31.6601 259.355C33.3284 258.673 35.0735 258.328 36.9048 258.328C37.9499 258.328 38.9662 258.433 39.9729 258.654C40.9797 258.875 42.0344 259.22 43.1466 259.681V267.808L43.1274 267.827Z" fill="#CC1517"/>
<path d="M62.9548 275.541L59.8962 266.819L56.8376 275.541H62.9452H62.9548ZM64.7669 280.723H55.0446L53.4818 285.271H46.2236L56.1856 259.076H63.6163L73.5783 285.271H66.3201L64.7573 280.723H64.7669Z" fill="#CC1517"/>
<path d="M76.4746 285.271L80.9139 259.076H87.6447L92.8893 273.037L98.0956 259.076H104.826L109.266 285.271H102.497L100.243 270.197L94.0686 285.271H91.3648L85.4969 270.197L83.2438 285.271H76.4746Z" fill="#CC1517"/>
<path d="M128.566 275.541L125.507 266.819L122.449 275.541H128.556H128.566ZM130.368 280.723H120.646L119.083 285.271H111.825L121.787 259.076H129.218L139.18 285.271H131.922L130.359 280.723H130.368Z" fill="black"/>
<path d="M149.056 279.504H150.619C151.798 279.504 152.853 279.322 153.773 278.948C154.703 278.573 155.48 278.065 156.113 277.422C156.745 276.77 157.234 276.002 157.57 275.11C157.905 274.217 158.078 273.239 158.078 272.174C158.078 271.108 157.905 270.159 157.56 269.257C157.215 268.355 156.717 267.578 156.084 266.925C155.451 266.273 154.665 265.764 153.744 265.399C152.814 265.025 151.779 264.843 150.619 264.843H149.056V279.504ZM142.258 259.076H152.325C154.109 259.076 155.777 259.431 157.34 260.151C158.903 260.871 160.264 261.82 161.434 263.02C162.604 264.21 163.524 265.601 164.195 267.184C164.866 268.767 165.202 270.437 165.202 272.174C165.202 273.91 164.876 275.541 164.214 277.125C163.553 278.708 162.642 280.109 161.472 281.308C160.302 282.517 158.941 283.477 157.378 284.196C155.815 284.916 154.128 285.271 152.325 285.271H142.258V259.076Z" fill="black"/>
<path d="M172.393 259.076L178.712 275.023L185.069 259.076H192.461L181.425 285.271H176.008L165.001 259.076H172.393Z" fill="black"/>
<path d="M202.222 285.271H195.414V259.076H202.222V285.271Z" fill="black"/>
<path d="M222.174 265.783C221.436 265.179 220.697 264.737 219.95 264.449C219.211 264.162 218.492 264.018 217.802 264.018C216.92 264.018 216.201 264.229 215.654 264.641C215.098 265.054 214.82 265.601 214.82 266.273C214.82 266.733 214.954 267.117 215.232 267.414C215.51 267.712 215.875 267.98 216.325 268.192C216.776 268.412 217.284 268.604 217.85 268.767C218.416 268.93 218.981 269.103 219.537 269.285C221.762 270.024 223.382 271.013 224.418 272.26C225.444 273.498 225.961 275.119 225.961 277.105C225.961 278.449 225.731 279.667 225.281 280.752C224.83 281.836 224.168 282.776 223.305 283.544C222.433 284.321 221.369 284.925 220.113 285.348C218.847 285.779 217.418 285.99 215.827 285.99C212.519 285.99 209.451 285.002 206.632 283.035L209.547 277.547C210.563 278.449 211.57 279.12 212.567 279.562C213.564 280.003 214.542 280.224 215.52 280.224C216.632 280.224 217.457 279.965 218.003 279.456C218.55 278.948 218.818 278.372 218.818 277.719C218.818 277.326 218.751 276.981 218.607 276.693C218.473 276.405 218.233 276.136 217.917 275.896C217.591 275.657 217.169 275.426 216.651 275.215C216.134 275.004 215.501 274.774 214.762 274.524C213.88 274.246 213.017 273.939 212.174 273.603C211.33 273.267 210.573 272.826 209.921 272.269C209.269 271.713 208.732 271.013 208.319 270.168C207.917 269.324 207.715 268.249 207.715 266.954C207.715 265.658 207.926 264.478 208.358 263.432C208.789 262.377 209.384 261.475 210.16 260.727C210.937 259.978 211.886 259.393 213.008 258.971C214.13 258.558 215.386 258.347 216.776 258.347C218.07 258.347 219.422 258.529 220.841 258.884C222.251 259.239 223.603 259.767 224.907 260.468L222.203 265.783H222.174Z" fill="black"/>
<path d="M245.674 264.843H237.582V269.218H245.224V274.985H237.582V279.504H245.674V285.271H230.784V259.076H245.674V264.843Z" fill="black"/>
<path d="M258.043 270.782H259.328C260.67 270.782 261.696 270.504 262.415 269.947C263.134 269.391 263.489 268.595 263.489 267.549C263.489 266.503 263.134 265.706 262.415 265.15C261.696 264.593 260.67 264.315 259.328 264.315H258.043V270.773V270.782ZM273 285.271H264.534L258.043 275.196V285.271H251.235V259.076H261.821C263.278 259.076 264.553 259.287 265.637 259.719C266.72 260.151 267.621 260.736 268.331 261.475C269.04 262.214 269.568 263.077 269.932 264.047C270.287 265.016 270.469 266.062 270.469 267.175C270.469 269.17 269.99 270.782 269.031 272.02C268.072 273.258 266.653 274.102 264.774 274.534L273 285.271Z" fill="black"/>
</g>
<defs>
<clipPath id="clip0_2591_2126">
<rect width="273" height="286" fill="white"/>
</clipPath>
</defs>
</svg>
